<svg width="25" height="24" viewBox="0 0 25 24" fill="none" xmlns="http://www.w3.org/2000/svg">
<path d="M2.56409 11.5598C2.56409 12.3853 2.73403 14.2401 3.87023 15.0558C5.00643 15.8715 7.57987 15.42 8.55583 15.3034C9.5318 15.1869 9.42012 16.1435 9.55608 16.8378C9.69203 17.5321 10.3184 17.7555 10.6243 17.7555H12.1975C12.1975 17.7555 13.4648 17.7555 13.7707 17.7555C14.0766 17.7555 14.703 17.537 14.8389 16.8378C14.9749 16.1386 14.8632 15.1821 15.8392 15.3034C16.8151 15.4248 19.3837 15.8715 20.5248 15.0558C21.6658 14.2401 21.8309 12.3853 21.8309 11.5598C21.8309 10.7344 21.661 8.87955 20.5248 8.06382C19.3886 7.24809 16.8151 7.69965 15.8392 7.81619C14.8632 7.93272 14.9749 6.97618 14.8389 6.28183C14.703 5.58749 14.0766 5.36414 13.7707 5.36414H12.1975C12.1975 5.36414 10.9302 5.36414 10.6243 5.36414C10.3184 5.36414 9.69203 5.58264 9.55608 6.28183C9.42012 6.98103 9.5318 7.93758 8.55583 7.81619C7.57987 7.6948 5.01128 7.24809 3.87023 8.06382C2.72918 8.87955 2.56409 10.7344 2.56409 11.5598Z" stroke="#343131" stroke-width="1.5" stroke-miterlimit="10"/>
<path d="M15.4799 9.90405H8.92008C8.08341 9.90405 7.40515 10.5823 7.40515 11.419V11.6957C7.40515 12.5324 8.08341 13.2107 8.92008 13.2107H15.4799C16.3166 13.2107 16.9949 12.5324 16.9949 11.6957V11.419C16.9949 10.5823 16.3166 9.90405 15.4799 9.90405Z" stroke="#343131" stroke-width="1.5" stroke-miterlimit="10"/>
</svg>
