<svg width="56" height="24" viewBox="0 0 56 24" fill="none" xmlns="http://www.w3.org/2000/svg">
<g clip-path="url(#clip0_2676_1623)">
<path d="M10.6925 16.4185C9.58877 17.6325 8.19856 18.2283 6.49842 18.2283C5.83604 18.2283 5.10765 18.0515 4.33506 17.6985C3.56247 17.3455 2.98849 16.8594 2.6131 16.2417V18.0515H0.0531006V0.0839844H2.67968V8.00846C3.05506 7.39028 3.60667 6.90468 4.37926 6.5735C5.15184 6.22049 5.88024 6.04371 6.56443 6.04371C8.28639 6.04371 9.67716 6.66189 10.7362 7.89769C11.8181 9.13406 12.3474 10.5466 12.3474 12.1136C12.3479 13.7701 11.7963 15.2045 10.6925 16.4185ZM2.63548 12.136C2.63548 13.1732 2.96667 14.0566 3.60667 14.785C4.26849 15.4915 5.12947 15.8445 6.16723 15.8445C7.20443 15.8445 8.06541 15.4915 8.70541 14.785C9.36779 14.0566 9.69898 13.1738 9.69898 12.136C9.69898 11.0983 9.36779 10.2155 8.70541 9.48706C8.06541 8.75867 7.20443 8.4051 6.16723 8.4051C5.12947 8.4051 4.26849 8.75811 3.60667 9.48706C2.96667 10.216 2.63548 11.0988 2.63548 12.136Z" fill="#CE7328"/>
<path d="M16.5409 12.9311C16.5627 13.8139 16.9163 14.5422 17.6005 15.1386C18.2847 15.7126 19.0797 15.9996 19.9843 15.9996C21.4634 15.9996 22.523 15.3814 23.163 14.1674L25.0612 15.4256C24.0676 17.2578 22.1476 18.2731 20.0285 18.2731C18.2847 18.2731 16.8055 17.6992 15.6139 16.5294C14.4441 15.3596 13.8478 13.8804 13.8478 12.1367C13.8478 10.4371 14.4218 9.00211 15.5474 7.80994C16.673 6.61778 18.0855 6.02197 19.7857 6.02197C21.5737 6.02197 22.9862 6.57414 24.0016 7.69973C25.017 8.82589 25.525 10.2827 25.525 12.1143C25.525 12.4673 25.5026 12.7325 25.4808 12.9311H16.5409ZM16.673 10.9445H22.8537C22.7653 9.28854 21.4629 8.27372 19.7857 8.27372C18.1745 8.27372 16.9157 9.3333 16.673 10.9445Z" fill="#CE7328"/>
<path d="M27.8635 1.23208C28.5477 0.525505 29.6073 0.525505 30.2915 1.23208C30.9757 1.91628 30.9757 2.97586 30.2915 3.66005C29.6073 4.34425 28.5477 4.34425 27.8635 3.66005C27.1793 2.97586 27.1793 1.91628 27.8635 1.23208ZM30.4017 18.0522H27.7751V6.26481H30.4017V18.0522Z" fill="#CE7328"/>
<path d="M36.2729 6.26467V19.4428C36.2729 22.423 34.838 23.9021 31.9904 23.9021C31.5709 23.9021 31.1737 23.8361 30.7988 23.7254V21.4294C30.9974 21.4954 31.2184 21.5178 31.4606 21.5178C33.0282 21.5178 33.624 20.9214 33.624 19.1559V6.26467H36.2729ZM36.6925 2.44592C36.6925 3.3953 35.8981 4.16732 34.9264 4.16732C33.977 4.16732 33.2044 3.39474 33.2044 2.44592C33.2044 1.49655 33.977 0.702148 34.9264 0.702148C35.8976 0.702148 36.6925 1.49655 36.6925 2.44592Z" fill="#CE7328"/>
<path d="M41.239 12.9311C41.2614 13.8139 41.6144 14.5422 42.2986 15.1386C42.9828 15.7126 43.7772 15.9996 44.6824 15.9996C46.161 15.9996 47.2206 15.3814 47.8611 14.1674L49.7593 15.4256C48.7663 17.2578 46.8458 18.2731 44.7266 18.2731C42.9828 18.2731 41.5037 17.6992 40.3121 16.5294C39.1423 15.3596 38.5459 13.8804 38.5459 12.1367C38.5459 10.4371 39.1199 9.00211 40.2455 7.80994C41.3711 6.61778 42.7842 6.02197 44.4838 6.02197C46.2718 6.02197 47.6844 6.57414 48.6997 7.69973C49.7151 8.82589 50.2225 10.2827 50.2225 12.1143C50.2225 12.4673 50.2007 12.7325 50.1783 12.9311H41.239ZM41.3716 10.9445H47.5523C47.4639 9.28854 46.1616 8.27372 44.4838 8.27372C42.8726 8.27372 41.6144 9.3333 41.3716 10.9445Z" fill="#CE7328"/>
<path d="M55.9972 16.3849C55.9972 16.8912 55.6106 17.2644 55.2789 17.5961C54.9471 17.9279 54.574 18.2025 54.0677 18.2025C53.5614 18.2025 53.224 17.8921 52.8923 17.5603C52.5605 17.2286 52.3328 16.8912 52.3328 16.3849C52.3328 15.8786 52.2965 15.2772 52.6282 14.9455C52.96 14.6137 53.5614 14.4336 54.0677 14.4336C54.574 14.4336 55.0288 14.7603 55.3605 15.0921C55.6923 15.4238 55.9972 15.8786 55.9972 16.3849Z" fill="#F68C1E"/>
</g>
<defs>
<clipPath id="clip0_2676_1623">
<rect width="56" height="23.8322" fill="white" transform="translate(0 0.0839844)"/>
</clipPath>
</defs>
</svg>
